<svg xmlns:xlink="http://www.w3.org/1999/xlink" xmlns="http://www.w3.org/2000/svg" width="46" height="16" viewBox="0 0 46 16" fill="none">
<path d="M16.3281 9.39687L17.0187 9.02798C17.3255 9.64576 17.7994 9.94502 18.4406 9.94502C19.0686 9.94502 19.4932 9.73909 19.4932 9.26354C19.4932 8.80872 19.1719 8.59539 18.3214 8.33909C17.324 8.04132 16.5215 7.7628 16.5215 6.76132C16.5215 5.8665 17.2397 5.27539 18.2865 5.27539C19.3042 5.27539 19.9046 5.7865 20.2186 6.40576L19.5848 6.85317C19.278 6.32724 18.8389 6.08576 18.2807 6.08576C17.7093 6.08576 17.3807 6.29909 17.3807 6.6828C17.3807 7.17317 17.75 7.33613 18.5947 7.59243C19.5702 7.88428 20.3524 8.21021 20.3524 9.19835C20.3524 10.0576 19.6342 10.7332 18.4071 10.7332C17.3822 10.7332 16.6567 10.1924 16.3281 9.39687Z" fill="#474C55"/>
<path d="M20.751 9.72435C20.751 8.90657 21.4343 8.3599 23.1644 8.16139V8.04731C23.1644 7.67102 22.9696 7.50805 22.5581 7.50805C22.042 7.50805 21.6233 7.76435 21.3093 8.01916L20.8905 7.4725C21.2889 7.10361 21.9082 6.79102 22.6759 6.79102C23.666 6.79102 24.0076 7.27398 24.0076 8.15546V9.7125C24.0076 10.1673 24.0352 10.4443 24.1123 10.6369H23.2472C23.1978 10.4814 23.1629 10.3673 23.1629 10.154C22.7864 10.5451 22.3473 10.6947 21.7963 10.6947C21.1973 10.6903 20.751 10.3495 20.751 9.72435ZM23.1644 9.58213V8.75102C22.1394 8.89324 21.5957 9.14953 21.5957 9.56139C21.5957 9.85916 21.7978 10.0162 22.1118 10.0162C22.5508 10.0147 22.8925 9.84435 23.1644 9.58213Z" fill="#474C55"/>
<path d="M25.2012 10.633V7.55746H24.5601V6.86116H25.2012V6.47746C25.2012 5.84486 25.46 5.35449 26.4006 5.35449C26.5606 5.35449 26.847 5.38264 26.9095 5.39005V6.0656C26.8542 6.05079 26.7147 6.03746 26.6173 6.03746C26.3105 6.03746 26.059 6.12338 26.059 6.52783V6.86116H26.8673V7.55746H26.059V10.6345H25.2012V10.633Z" fill="#474C55"/>
<path d="M27.1753 8.74957C27.1753 7.31401 28.1726 6.78809 28.9403 6.78809C29.7704 6.78809 30.5657 7.29327 30.5657 8.82809V9.03401H28.0345C28.0694 9.71549 28.4809 10.0148 29.0246 10.0148C29.5058 10.0148 29.785 9.85179 30.0641 9.57475L30.5177 10.0296C30.1339 10.4636 29.625 10.7111 28.9621 10.7111C28.0331 10.7111 27.1753 10.1362 27.1753 8.74957ZM29.7762 8.38068C29.7268 7.80438 29.4491 7.4992 28.933 7.4992C28.5143 7.4992 28.1305 7.74068 28.0476 8.38068H29.7762Z" fill="#474C55"/>
<path d="M31.332 10.6323V5.37305H31.9456V8.0886L34.2819 5.37453H35.0205L33.2497 7.37897L35.2647 10.6338H34.5596L32.844 7.85601L31.9441 8.85749V10.6338H31.332V10.6323Z" fill="#878A8F"/>
<path d="M35.4404 8.75681C35.4404 7.39236 36.3331 6.80273 37.1065 6.80273C37.9789 6.80273 38.6404 7.42792 38.6404 8.78496V8.91236H36.0409C36.0612 9.75829 36.5425 10.2131 37.1502 10.2131C37.6794 10.2131 37.9803 9.99236 38.2595 9.60273L38.6084 9.91533C38.2667 10.4131 37.8 10.7109 37.1095 10.7109C36.2357 10.7109 35.4404 10.065 35.4404 8.75681ZM38.0705 8.43681C38.021 7.76866 37.7084 7.31385 37.1007 7.31385C36.605 7.31385 36.1383 7.66199 36.054 8.43681H38.0705Z" fill="#878A8F"/>
<path d="M38.9155 11.9831L39.0551 11.4927C39.1598 11.5209 39.3415 11.5564 39.5988 11.5564C39.9754 11.5564 40.1571 11.3935 40.3025 11.0231L40.4421 10.6542L39.0202 6.88086H39.6541L40.7343 9.91493H40.7488L41.8305 6.88086H42.4368L40.8608 11.0601C40.6093 11.7209 40.3243 12.0764 39.6061 12.0764C39.2775 12.0749 39.0755 12.032 38.9155 11.9831Z" fill="#878A8F"/>
<path d="M42.6372 7.41405C42.6372 7.09553 42.8785 6.84961 43.1911 6.84961C43.4993 6.84961 43.7378 7.09257 43.7378 7.40961C43.7378 7.72813 43.4964 7.97405 43.1839 7.97405C42.8742 7.97405 42.6372 7.73109 42.6372 7.41405ZM43.6258 7.41405C43.6258 7.15331 43.4368 6.95479 43.1839 6.95479C42.9352 6.95479 42.7492 7.14887 42.7492 7.40961C42.7492 7.67035 42.9352 7.86739 43.1911 7.86739C43.4397 7.86739 43.6258 7.67479 43.6258 7.41405ZM42.9701 7.09405H43.2042C43.3496 7.09405 43.4354 7.15924 43.4354 7.29554C43.4354 7.39035 43.3947 7.4422 43.3278 7.47331L43.447 7.70739H43.2944L43.1868 7.49109H43.1155V7.70739H42.9701V7.09405ZM43.194 7.37998C43.258 7.37998 43.2944 7.35776 43.2944 7.30146C43.2944 7.24813 43.258 7.22294 43.194 7.22294H43.1155V7.3785H43.194V7.37998Z" fill="#878A8F"/>
<path d="M12.9133 13.3231H7.74773H2.47314V8.24605V2.68457H7.66196H12.9133V8.26235V13.3231Z" fill="white"/>
<path d="M12.5091 10.329H8.99369L8.80032 10.0727V10.329H7.99343V9.84457C7.88149 9.89049 7.75209 9.91568 7.61107 9.91568H7.56745V10.329H6.42327L6.24299 10.0712L6.06708 10.329H4.22359V8.47716H6.0758L6.25317 8.72901L6.43054 8.47716H12.9133V2.68457H2.47314V6.84901L2.83079 5.99864H3.57371L3.73945 6.38827V6.00013H4.65829L4.7746 6.33642L4.88945 6.00013H8.84103V6.14975C8.98933 6.04753 9.17396 6.00013 9.37023 6.00013H10.5929L10.7587 6.38976V6.00013H11.5089L11.6833 6.28901V6.00013H12.4989V7.85198H11.7284L11.5656 7.57938V7.85198H10.4388L10.3341 7.57938H10.1146L10.0143 7.85198H9.35134C9.1885 7.85198 8.9995 7.82087 8.84103 7.71568V7.85198H7.70993L7.51657 7.59568V7.85198H3.4196L3.31493 7.57938H3.09685L2.99508 7.85198H2.4746V13.3246H12.9147V10.2194C12.8028 10.289 12.6632 10.329 12.5091 10.329Z" fill="#006FCF"/>
<path d="M12.5162 9.77653H11.8751V10.0432H12.506C12.7779 10.0432 12.9393 9.87431 12.9393 9.63728C12.9393 9.40616 12.7924 9.27135 12.5482 9.27135H12.2632C12.1891 9.27135 12.1382 9.22246 12.1382 9.14839C12.1382 9.07727 12.1905 9.02987 12.2632 9.02987H12.8026L12.9189 8.7632H12.2749C12.0059 8.7632 11.8416 8.93209 11.8416 9.16172C11.8416 9.40024 11.9957 9.53357 12.2327 9.53357H12.5177C12.5918 9.53357 12.6427 9.58098 12.6427 9.65802C12.6412 9.72913 12.5889 9.77653 12.5162 9.77653ZM11.3589 9.77653H10.7178V10.0432H11.3488C11.6206 10.0432 11.782 9.87431 11.782 9.63728C11.782 9.40616 11.6352 9.27135 11.3909 9.27135H11.106C11.0318 9.27135 10.9809 9.22246 10.9809 9.14839C10.9809 9.07727 11.0333 9.02987 11.106 9.02987H11.6453L11.7617 8.7632H11.1176C10.8486 8.7632 10.6843 8.93209 10.6843 9.16172C10.6843 9.40024 10.8385 9.53357 11.0754 9.53357H11.3604C11.4345 9.53357 11.4854 9.58098 11.4854 9.65802C11.4854 9.72913 11.4331 9.77653 11.3589 9.77653ZM10.5506 9.0269V8.7632H9.55034V10.0447H10.5506V9.78542H9.84693V9.53061H10.5346V9.27283H9.84693V9.02839H10.5506V9.0269ZM8.92518 9.02987C9.03277 9.02987 9.08656 9.09505 9.08656 9.17653C9.08656 9.25653 9.03277 9.3232 8.92518 9.3232H8.56899V9.02987H8.92518ZM8.57044 9.57357H8.71001L9.09237 10.0432H9.46165L9.04731 9.56172C9.25957 9.52172 9.3846 9.36765 9.3846 9.16468C9.3846 8.92913 9.21886 8.76172 8.95135 8.76172H8.2724V10.0432H8.56899V9.57357H8.57044ZM7.81007 9.19283C7.81007 9.28024 7.75628 9.35135 7.6487 9.35135H7.28378V9.02987H7.6487C7.75628 9.02987 7.81007 9.10098 7.81007 9.19283ZM6.98719 8.7632V10.0447H7.28378V9.6195H7.66469C7.93947 9.6195 8.10811 9.43579 8.10811 9.19135C8.10811 8.93653 7.94237 8.7632 7.67487 8.7632H6.98719ZM6.5583 10.0447H6.92758L6.42164 9.39876L6.92468 8.7632H6.56557L6.25299 9.17802L5.94187 8.7632H5.57259L6.07708 9.4032L5.57404 10.0432H5.93315L6.24572 9.62394L6.5583 10.0447ZM5.51734 9.0269V8.7632H4.51709V10.0447H5.51734V9.78542H4.81368V9.53061H5.50135V9.27283H4.81368V9.02839H5.51734V9.0269Z" fill="#006FCF"/>
<path d="M11.2952 6.85357L11.2865 6.63876L11.4071 6.84765L11.8491 7.56469H12.1922V6.2832H11.9116V6.96468L11.9203 7.18098L11.7982 6.96913L11.3722 6.28468H11.0117V7.56617H11.2952V6.85357ZM10.1103 6.74987L10.2019 6.4995L10.2949 6.74987L10.4185 7.06098H9.98816L10.1103 6.74987ZM10.6177 7.56617H10.9477L10.4112 6.28468H10.0201L9.48076 7.56617H9.78753L9.89366 7.29506H10.5101L10.6177 7.56617ZM9.31066 7.56617H9.3252L9.44733 7.29654H9.35719C9.14929 7.29654 9.02716 7.16468 9.02716 6.93357V6.9158C9.02716 6.70839 9.13911 6.5558 9.35428 6.5558H9.67704V6.28468H9.33102C8.94429 6.28468 8.73058 6.54987 8.73058 6.91283V6.93802C8.73058 7.3158 8.9472 7.5632 9.31066 7.56617ZM8.2508 7.56617H8.54739V6.92617V6.28617H8.2508V6.92617V7.56617ZM7.62564 6.55283C7.73323 6.55283 7.78702 6.6195 7.78702 6.6995C7.78702 6.7795 7.73323 6.84617 7.62564 6.84617H7.26945V6.55283H7.62564ZM7.2709 7.09654H7.41047L7.79284 7.56617H8.16212L7.74777 7.08468C7.96003 7.04468 8.08506 6.89061 8.08506 6.68765C8.08506 6.45209 7.91932 6.28468 7.65181 6.28468H6.97286V7.56617H7.26945V7.09654H7.2709ZM6.76642 6.54839V6.28468H5.76616V7.56617H6.76642V7.30691H6.06275V7.05209H6.75042V6.79431H6.06275V6.54839H6.76642ZM4.28323 6.72617L4.27305 6.43135L4.36464 6.72617L4.62925 7.56617H4.90403L5.17008 6.72617L5.26167 6.42987L5.2515 6.72617L5.24859 7.56617H5.52482V6.28468H5.05813L4.84442 6.9558L4.76736 7.2432L4.69031 6.9558L4.47659 6.28468H4.00845V7.56617H4.28904L4.28323 6.72617ZM3.1056 6.74987L3.1972 6.4995L3.29024 6.74987L3.41382 7.06098H2.98348L3.1056 6.74987ZM3.61445 7.56617H3.94448L3.40801 6.28468H3.01692L2.47754 7.56617H2.7843L2.89043 7.29506H3.50687L3.61445 7.56617Z" fill="#006FCF"/>
</svg>