<svg xmlns:xlink="http://www.w3.org/1999/xlink" xmlns="http://www.w3.org/2000/svg" width="16" height="16" viewBox="0 0 16 16" fill="none">
<g clip-path="url(#clip0_4368_478)">
<path d="M0 0V7.968V16H8H16V8V0H8H0Z" fill="white"/>
<path d="M13.152 3.936L13.664 2.528H16V0H0V16H16V13.472H13.792L12.992 12.512L12.128 13.472H5.856V8.384H3.776L6.368 2.528H8.896L9.504 3.84V2.528H12.64L13.152 3.936ZM11.392 4.864V4.288L11.616 4.864L12.64 7.648H13.664L14.72 4.864L14.912 4.32V7.648H16V3.36H14.176L13.344 5.536L13.12 6.112L12.896 5.536L12.064 3.36H10.24V7.616H11.328V4.864H11.392ZM9.024 7.616H10.272L8.384 3.36H6.944L5.056 7.616H6.304L6.624 6.784H8.704L9.024 7.616ZM7.456 4.8L7.68 4.256L7.904 4.8L8.352 5.888H7.04L7.456 4.8ZM6.72 8.384V12.64H10.272V11.712H7.808V10.976H10.24V10.048H7.808V9.312H10.272V8.384H6.72ZM14.24 12.64H15.68L13.696 10.496L15.68 8.384H14.272L12.992 9.76L11.712 8.384H10.304L12.288 10.528L10.304 12.64H11.68L12.992 11.264L14.24 12.64ZM14.784 10.496L16 11.712V9.28L14.784 10.496Z" fill="#006FCF"/>
</g>
<defs>
<clipPath id="clip0_4368_478">
<rect width="16" height="16" fill="white"/>
</clipPath>
</defs>
</svg>