<svg width="22" height="22" viewBox="0 0 24 24" fill="none" xmlns="http://www.w3.org/2000/svg">
          <path fill-rule="evenodd" clip-rule="evenodd" d="M22.2857 12C22.2857 17.6806 17.6806 22.2857 12 22.2857C6.31936 22.2857 1.71429 17.6806 1.71429 12C1.71429 6.31936 6.31936 1.71429 12 1.71429C17.6806 1.71429 22.2857 6.31936 22.2857 12ZM24 12C24 18.6274 18.6274 24 12 24C5.37258 24 0 18.6274 0 12C0 5.37258 5.37258 0 12 0C18.6274 0 24 5.37258 24 12ZM10.2959 12.4469H8.79255C8.67036 12.4469 8.57135 12.3479 8.57135 12.2257V9.97637C8.57135 9.85418 8.67036 9.75517 8.79255 9.75517H10.3707V8.08503C10.3393 7.90418 10.2076 6.8611 11.1545 5.98993C12.009 5.20379 13.0908 5.1427 13.402 5.1427C13.4434 5.1427 13.4715 5.14372 13.4842 5.14434H15.2779C15.4 5.14434 15.4991 5.24335 15.4991 5.36554V7.45692C15.4991 7.57907 15.4 7.67812 15.2779 7.67812H13.9763C13.5191 7.67812 13.2873 7.89644 13.2873 8.32698V9.75521H15.2779C15.3409 9.75521 15.401 9.78216 15.443 9.82923C15.4849 9.87625 15.5048 9.93903 15.4976 10.0017L15.2351 12.2801C15.2222 12.3918 15.1277 12.4761 15.0153 12.4761H13.2872V18.6358C13.2872 18.758 13.1882 18.857 13.066 18.857H10.5171C10.3949 18.857 10.2959 18.758 10.2959 18.6358V12.4469Z" fill="#FFFFFF" class="hover"></path>
        </svg>