<svg xmlns:xlink="http://www.w3.org/1999/xlink" xmlns="http://www.w3.org/2000/svg" width="44" height="12" viewBox="0 0 44 12" fill="none">
<g clip-path="url(#clip0_4368_487)">
<path d="M0.796875 6.0712C0.796875 3.02338 3.26733 0.551758 6.31632 0.551758C9.3653 0.551758 11.8358 3.02338 11.8358 6.0712C11.8358 9.11902 9.3653 11.5906 6.31632 11.5906C3.26733 11.5906 0.796875 9.11902 0.796875 6.0712Z" fill="white"/>
<path d="M15.6183 2.71582C15.6183 2.17461 15.3349 2.21077 15.0654 2.20494V2.0498C15.2999 2.0603 15.5402 2.0603 15.7746 2.0603C16.0265 2.0603 16.3695 2.0498 16.815 2.0498C18.3722 2.0498 19.2202 3.08907 19.2202 4.154C19.2202 4.74887 18.8714 6.24654 16.7427 6.24654C16.4371 6.24654 16.1537 6.23487 15.8714 6.23487C15.6008 6.23487 15.336 6.24071 15.0654 6.24654V6.08907C15.4258 6.05292 15.6008 6.04125 15.6183 5.63301V2.71582ZM16.2062 5.5362C16.2062 5.99926 16.5374 6.05292 16.8314 6.05292C18.1307 6.05292 18.5565 5.07313 18.5565 4.17733C18.5565 3.05408 17.8356 2.24226 16.6751 2.24226C16.429 2.24226 16.3147 2.25976 16.2062 2.26559V5.5362Z" fill="black"/>
<path d="M19.4302 6.08934H19.5445C19.7124 6.08934 19.8326 6.08934 19.8326 5.88989V4.26158C19.8326 3.99681 19.7428 3.96065 19.52 3.84168V3.74486C19.8034 3.65972 20.1394 3.54657 20.1638 3.52791C20.2058 3.50458 20.242 3.49875 20.2723 3.49875C20.3026 3.49875 20.3143 3.53491 20.3143 3.58273V5.89105C20.3143 6.09051 20.4473 6.09051 20.6152 6.09051H20.7179V6.24681C20.5138 6.24681 20.3026 6.23514 20.0869 6.23514C19.8699 6.23514 19.6541 6.24098 19.4313 6.24681V6.08934H19.4302ZM20.074 2.57262C19.9166 2.57262 19.7789 2.42799 19.7789 2.27169C19.7789 2.12122 19.9236 1.98242 20.074 1.98242C20.2292 1.98242 20.3691 2.10839 20.3691 2.27169C20.3691 2.43382 20.2362 2.57262 20.074 2.57262Z" fill="black"/>
<path d="M21.2881 4.29704C21.2881 4.07542 21.2216 4.01477 20.9393 3.90162V3.78615C21.1971 3.70217 21.4432 3.62285 21.7325 3.49805C21.75 3.49805 21.7687 3.50971 21.7687 3.55753V3.94945C22.1116 3.70217 22.4067 3.49805 22.8103 3.49805C23.3211 3.49805 23.5019 3.87013 23.5019 4.34019V5.89035C23.5019 6.0898 23.6349 6.0898 23.8029 6.0898H23.9113V6.2461C23.7002 6.2461 23.4903 6.23444 23.2745 6.23444C23.0575 6.23444 22.8418 6.24027 22.6248 6.2461V6.0898H22.7333C22.9024 6.0898 23.0214 6.0898 23.0214 5.89035V4.33319C23.0214 3.99027 22.8114 3.82231 22.4685 3.82231C22.276 3.82231 21.9693 3.97861 21.771 4.11158V5.89035C21.771 6.0898 21.904 6.0898 22.0731 6.0898H22.1816V6.2461C21.9704 6.2461 21.7593 6.23444 21.5435 6.23444C21.3278 6.23444 21.1108 6.24027 20.895 6.2461V6.0898H21.0035C21.1715 6.0898 21.2916 6.0898 21.2916 5.89035V4.29704H21.2881Z" fill="black"/>
<path d="M24.3675 4.58631C24.3546 4.63996 24.3546 4.72977 24.3675 4.93506C24.4025 5.5066 24.7699 5.9755 25.2504 5.9755C25.5817 5.9755 25.8406 5.7947 26.0623 5.57192L26.1462 5.6559C25.8698 6.02215 25.5269 6.33475 25.0347 6.33475C24.0782 6.33475 23.8857 5.40862 23.8857 5.02487C23.8857 3.8468 24.6789 3.49805 25.1 3.49805C25.5875 3.49805 26.1112 3.80481 26.1171 4.44167C26.1171 4.479 26.1171 4.51399 26.1112 4.55015L26.0564 4.58631H24.3675ZM25.4312 4.39385C25.5805 4.39385 25.598 4.3157 25.598 4.24338C25.598 3.93545 25.4114 3.68934 25.0755 3.68934C24.7092 3.68934 24.4561 3.95994 24.3838 4.39268H25.4312V4.39385Z" fill="black"/>
<path d="M26.2549 6.08942H26.4182C26.5861 6.08942 26.7063 6.08942 26.7063 5.88997V4.20218C26.7063 4.01672 26.4847 3.98056 26.3937 3.93157V3.84292C26.8323 3.6563 27.0737 3.5 27.1274 3.5C27.1635 3.5 27.181 3.5175 27.181 3.57815V4.11936H27.1938C27.3431 3.88491 27.5963 3.50117 27.9625 3.50117C28.113 3.50117 28.3043 3.60264 28.3043 3.8196C28.3043 3.98173 28.1911 4.12753 28.022 4.12753C27.8354 4.12753 27.8354 3.98289 27.6254 3.98289C27.5228 3.98289 27.1868 4.12053 27.1868 4.48211V5.89347C27.1868 6.09292 27.307 6.09292 27.4749 6.09292H27.812V6.24922C27.4808 6.24339 27.2288 6.23756 26.9711 6.23756C26.7238 6.23756 26.4718 6.24339 26.2549 6.24922V6.08942Z" fill="black"/>
<path d="M28.5702 5.40979C28.6484 5.80637 28.8898 6.14346 29.3284 6.14346C29.683 6.14346 29.8148 5.92651 29.8148 5.71655C29.8148 5.00738 28.5049 5.23483 28.5049 4.26788C28.5049 3.93078 28.7755 3.49805 29.4368 3.49805C29.6293 3.49805 29.8871 3.5517 30.1215 3.67184L30.1635 4.28537H30.0259C29.9664 3.90629 29.7553 3.68934 29.3704 3.68934C29.1289 3.68934 28.9015 3.82814 28.9015 4.08708C28.9015 4.79043 30.2965 4.57464 30.2965 5.51826C30.2965 5.91484 29.9781 6.33592 29.263 6.33592C29.0216 6.33592 28.7393 6.25193 28.5294 6.13179L28.4629 5.44012L28.5702 5.40979Z" fill="black"/>
<path d="M35.7246 3.13706H35.5741C35.4598 2.43371 34.9606 2.15144 34.2887 2.15144C33.5959 2.15144 32.5916 2.61451 32.5916 4.05619C32.5916 5.27158 33.4594 6.14405 34.3844 6.14405C34.9793 6.14405 35.4726 5.73581 35.5939 5.10362L35.7316 5.13978L35.5939 6.01808C35.3408 6.17438 34.6608 6.33651 34.2642 6.33651C32.8576 6.33651 31.9688 5.42905 31.9688 4.07601C31.9688 2.84312 33.0687 1.95898 34.2467 1.95898C34.7343 1.95898 35.202 2.11528 35.6651 2.27741L35.7246 3.13706Z" fill="black"/>
<path d="M35.9419 6.08955H36.0562C36.2253 6.08955 36.3455 6.08955 36.3455 5.89009V2.54367C36.3455 2.15176 36.2557 2.14009 36.027 2.07361V1.97679C36.2673 1.89865 36.5204 1.79134 36.6464 1.71785C36.7117 1.68169 36.7607 1.65137 36.7782 1.65137C36.8144 1.65137 36.826 1.68753 36.826 1.73651V5.89126C36.826 6.09071 36.959 6.09071 37.127 6.09071H37.2296V6.24701C37.0267 6.24701 36.8155 6.23535 36.5974 6.23535C36.3816 6.23535 36.1658 6.24118 35.9419 6.24701V6.08955Z" fill="black"/>
<path d="M39.8024 5.91487C39.8024 6.02335 39.8677 6.02918 39.9704 6.02918C40.0415 6.02918 40.1325 6.02335 40.2118 6.02335V6.14932C39.9517 6.17265 39.4595 6.29979 39.3452 6.33478L39.316 6.31728V5.83206C38.9556 6.12599 38.678 6.33595 38.2511 6.33595C37.9268 6.33595 37.5909 6.12599 37.5909 5.62094V4.08128C37.5909 3.92498 37.5664 3.77335 37.2305 3.74419V3.62988C37.4474 3.62288 37.9268 3.58789 38.0061 3.58789C38.0726 3.58789 38.0726 3.62988 38.0726 3.76169V5.31301C38.0726 5.49263 38.0726 6.01052 38.5952 6.01052C38.7993 6.01052 39.0699 5.85422 39.3218 5.64543V4.02646C39.3218 3.90632 39.0337 3.841 38.8179 3.78035V3.67187C39.3592 3.63571 39.6963 3.58789 39.7557 3.58789C39.8036 3.58789 39.8036 3.62988 39.8036 3.69637V5.91487H39.8024Z" fill="black"/>
<path d="M40.9992 3.93169C41.2395 3.72757 41.5649 3.50012 41.895 3.50012C42.5925 3.50012 43.0136 4.10782 43.0136 4.76218C43.0136 5.5495 42.4362 6.33799 41.5754 6.33799C41.1298 6.33799 40.8965 6.19336 40.7402 6.12804L40.5606 6.26567L40.4346 6.20036C40.4871 5.84577 40.5186 5.49701 40.5186 5.12959V2.54367C40.5186 2.15176 40.4288 2.14009 40.2002 2.07361V1.97679C40.4416 1.89865 40.6936 1.79134 40.8196 1.71785C40.8849 1.68169 40.9339 1.65137 40.9525 1.65137C40.9887 1.65137 41.0004 1.68753 41.0004 1.73651V3.93169H40.9992ZM40.9992 5.567C40.9992 5.79561 41.2161 6.18053 41.6185 6.18053C42.2624 6.18053 42.533 5.54833 42.533 5.01412C42.533 4.3656 42.0396 3.82438 41.5707 3.82438C41.3468 3.82438 41.1613 3.96902 40.9992 4.10782V5.567Z" fill="black"/>
<path d="M15.0586 9.74249H15.1041C15.2219 9.74249 15.3467 9.72733 15.3467 9.55586V7.84241C15.3467 7.67212 15.2219 7.65579 15.1041 7.65579H15.0586V7.55664C15.1869 7.55664 15.3829 7.57064 15.5427 7.57064C15.7059 7.57064 15.9019 7.55664 16.0559 7.55664V7.65579H16.0104C15.8926 7.65579 15.7678 7.67095 15.7678 7.84241V9.55586C15.7678 9.72616 15.8926 9.74249 16.0104 9.74249H16.0559V9.84163C15.8996 9.84163 15.7025 9.8288 15.5392 9.8288C15.3782 9.8288 15.1857 9.84163 15.0586 9.84163V9.74249Z" fill="black"/>
<path d="M16.0557 9.85441C15.8982 9.85441 15.7011 9.84158 15.539 9.84158C15.3792 9.84158 15.1867 9.85441 15.0584 9.85441H15.0444V9.84041V9.74243V9.72844H15.0584H15.1039C15.2229 9.7261 15.3302 9.71561 15.3314 9.55581V7.84236C15.3302 7.68256 15.2229 7.67206 15.1039 7.66973H15.0444V7.6569V7.54492H15.0584C15.1867 7.54492 15.3827 7.55775 15.5425 7.55775C15.7058 7.55775 15.9006 7.54492 16.0557 7.54492H16.0697V7.55892V7.67089H16.0557H16.0102C15.8912 7.67323 15.7828 7.68372 15.7816 7.84352V9.55698C15.7816 9.71677 15.8912 9.72727 16.0102 9.7296H16.0697V9.7436V9.85558H16.0557V9.85441ZM16.0417 9.82641V9.75643H16.0102C15.8936 9.75643 15.7536 9.73544 15.7536 9.55464V7.84236C15.7548 7.66156 15.8936 7.64173 16.0102 7.64173H16.0417V7.57292C15.8912 7.57292 15.7011 7.58575 15.5425 7.58575C15.3874 7.58575 15.1984 7.57408 15.0724 7.57292V7.64173H15.1039C15.2206 7.64173 15.3594 7.66156 15.3594 7.84236V9.55581C15.3594 9.7366 15.2194 9.7576 15.1039 9.7576H15.0724V9.82758C15.1984 9.82525 15.3839 9.81475 15.539 9.81475C15.6988 9.81358 15.8877 9.82525 16.0417 9.82641Z" fill="black"/>
<path d="M18.3035 9.19661L18.3105 9.18961V7.96255C18.3105 7.69428 18.1239 7.65579 18.0259 7.65579H17.9548V7.55664C18.1087 7.55664 18.2592 7.56947 18.4132 7.56947C18.5473 7.56947 18.6814 7.55664 18.8156 7.55664V7.65579H18.7678C18.6301 7.65579 18.475 7.68145 18.475 8.07103V9.56053C18.475 9.67484 18.4785 9.78914 18.4948 9.89062H18.37L16.6846 8.01271V9.35991C16.6846 9.64568 16.7394 9.74249 16.9925 9.74249H17.0473V9.84163C16.9073 9.84163 16.7662 9.8288 16.6251 9.8288C16.4793 9.8288 16.3276 9.84163 16.1807 9.84163V9.74249H16.2262C16.4524 9.74249 16.5213 9.58969 16.5213 9.32725V7.94972C16.5213 7.76659 16.3696 7.65579 16.2227 7.65579H16.1807V7.55664C16.3043 7.55664 16.4326 7.56947 16.5562 7.56947C16.6542 7.56947 16.7499 7.55664 16.8478 7.55664L18.3035 9.19661Z" fill="black"/>
<path d="M18.4934 9.90416L18.3581 9.89949L16.6971 8.0484V9.35944C16.7018 9.64405 16.7449 9.72453 16.991 9.7292H17.061V9.74203V9.854H17.0459C16.9047 9.854 16.7636 9.84117 16.6236 9.84117C16.4778 9.84117 16.3274 9.854 16.1781 9.854H16.1641V9.84V9.72803H16.1781H16.2247C16.4417 9.7257 16.5023 9.58689 16.5058 9.32679V7.94926C16.5047 7.77546 16.3624 7.66932 16.2224 7.66932H16.1652V7.65416V7.54218H16.1792C16.3052 7.54218 16.4323 7.55501 16.556 7.55501C16.6528 7.55501 16.7484 7.54218 16.8581 7.54685L18.2963 9.16465V7.96209C18.2939 7.70198 18.1213 7.67049 18.0256 7.66815H17.9393V7.65299V7.54102H17.9545C18.1085 7.54102 18.2601 7.55385 18.4129 7.55385C18.5459 7.55385 18.68 7.54102 18.8153 7.54102H18.8305V7.55385V7.66699H18.8153H18.7663C18.631 7.67049 18.4922 7.68332 18.4887 8.06823V9.55773C18.4887 9.67088 18.4922 9.78518 18.5074 9.88549L18.5097 9.90182H18.4934V9.90416ZM18.3686 9.875H18.477C18.4619 9.77702 18.4596 9.66738 18.4596 9.5589V8.0694C18.4596 7.67632 18.624 7.64016 18.7651 7.64016H18.8001V7.57018C18.6707 7.57134 18.5424 7.58301 18.4117 7.58301C18.2613 7.58301 18.1155 7.57134 17.9673 7.57018V7.64016H18.0245C18.126 7.64016 18.3231 7.68448 18.3231 7.96209L18.3196 9.19848L18.3126 9.20431L18.3009 9.21481L16.8464 7.57018C16.7484 7.57018 16.654 7.58301 16.5548 7.58301C16.4347 7.58301 16.3122 7.57134 16.1932 7.57018V7.64016H16.2224C16.3763 7.64016 16.5338 7.7568 16.5338 7.94809V9.32562C16.5338 9.58806 16.4603 9.75486 16.2259 9.75602L16.1944 9.75486V9.82601C16.3355 9.82367 16.4813 9.81201 16.6248 9.81201C16.7613 9.81201 16.8977 9.82367 17.033 9.82601V9.75602H16.9922C16.7344 9.75486 16.6703 9.64405 16.6703 9.35828V7.97492L18.3686 9.875ZM18.3033 9.19615L18.3138 9.18682L18.3033 9.19615ZM18.2963 9.18915L18.2939 9.18565L18.2963 9.18915Z" fill="black"/>
<path d="M19.3043 7.72004C19.0582 7.72004 19.05 7.77953 18.9998 8.01748H18.9019C18.9147 7.9265 18.931 7.83435 18.9415 7.7387C18.9543 7.64772 18.9613 7.55558 18.9613 7.4611H19.0407C19.0663 7.55908 19.148 7.55558 19.2366 7.55558H20.9244C21.0131 7.55558 21.0947 7.55325 21.1017 7.4541L21.1799 7.4681C21.1682 7.55558 21.1542 7.64423 21.1449 7.73287C21.1379 7.82152 21.1379 7.91017 21.1379 7.99765L21.0387 8.03497C21.0317 7.91367 21.0154 7.72004 20.7961 7.72004H20.2596V9.46032C20.2596 9.71343 20.3739 9.74143 20.5313 9.74143H20.5931V9.8394C20.466 9.8394 20.2362 9.82657 20.0601 9.82657C19.8641 9.82657 19.6344 9.8394 19.5072 9.8394V9.74143H19.569C19.7498 9.74143 19.8408 9.7251 19.8408 9.46732V7.72004H19.3043Z" fill="black"/>
<path d="M20.5939 9.85451C20.4645 9.85451 20.2358 9.84168 20.0597 9.84168C19.8638 9.84168 19.6351 9.85451 19.5068 9.85451H19.4928V9.84052V9.72854H19.5068H19.5698C19.7506 9.72388 19.8229 9.72154 19.8264 9.46843V7.73399H19.3039V7.71999V7.70599H19.8544V9.46727C19.8544 9.72971 19.7483 9.75654 19.5687 9.75654H19.5208V9.82535C19.6503 9.82419 19.8696 9.81252 20.0597 9.81252C20.23 9.81252 20.4493 9.82419 20.5788 9.82535V9.75654H20.5309C20.3723 9.75654 20.2452 9.71804 20.2452 9.46027V7.70716H20.7957C21.015 7.70716 21.0442 7.89378 21.0512 8.01509L21.1223 7.98943C21.1223 7.90428 21.1223 7.81913 21.1281 7.73282C21.1375 7.64884 21.1491 7.56602 21.162 7.48204L21.1118 7.47388C21.0955 7.56835 21.0045 7.57419 20.9229 7.57302H19.2351H19.2176C19.1406 7.57302 19.0566 7.56952 19.0274 7.47854H18.9726C18.9726 7.56952 18.9656 7.657 18.9528 7.74448C18.9435 7.8343 18.9295 7.92061 18.9166 8.00576H18.9866C19.0298 7.77831 19.0578 7.70482 19.3016 7.70832V7.72232V7.73632C19.0601 7.74098 19.0659 7.78181 19.0111 8.02325L19.0088 8.03492H18.9971H18.8828L18.8851 8.01859C18.898 7.92761 18.9155 7.83546 18.9248 7.73982C18.9376 7.64884 18.9446 7.55786 18.9446 7.46454V7.45055H18.9586H19.0484L19.0508 7.46105C19.0729 7.54386 19.1336 7.54386 19.2164 7.54619H19.2339H20.9217C21.0127 7.54386 21.0792 7.54269 21.085 7.45755L21.0862 7.44238L21.1013 7.44472L21.1935 7.45871L21.1923 7.47271C21.1795 7.56136 21.1666 7.64884 21.1573 7.73632C21.1503 7.8238 21.1503 7.91244 21.1503 8.00109V8.01159L21.141 8.01509L21.0243 8.05708V8.03725C21.015 7.91478 21.0022 7.73632 20.7957 7.73632H20.2732V9.4626C20.2767 9.70988 20.3746 9.72738 20.5309 9.72971H20.6068V9.7437V9.85568H20.5939V9.85451Z" fill="black"/>
<path d="M21.2834 9.74249H21.3289C21.4467 9.74249 21.5703 9.72732 21.5703 9.55586V7.84241C21.5703 7.67212 21.4455 7.65579 21.3289 7.65579H21.2834V7.55664C21.4817 7.55664 21.8234 7.57064 22.0975 7.57064C22.3728 7.57064 22.7122 7.55664 22.935 7.55664C22.9292 7.69778 22.9327 7.91473 22.942 8.0582L22.8429 8.08386C22.8277 7.87157 22.7881 7.70127 22.444 7.70127H21.9902V8.55742H22.3787C22.5758 8.55742 22.6178 8.44661 22.6376 8.27048H22.7356C22.7297 8.39762 22.7262 8.52593 22.7262 8.65306C22.7262 8.77787 22.7297 8.90151 22.7356 9.02631L22.6376 9.04614C22.6189 8.85019 22.6084 8.72188 22.3821 8.72188H21.9902V9.48355C21.9902 9.69583 22.1792 9.69583 22.388 9.69583C22.7811 9.69583 22.9537 9.67017 23.0528 9.29692L23.1438 9.32025C23.1018 9.49404 23.0622 9.66667 23.033 9.84047C22.8242 9.84047 22.4475 9.82764 22.1524 9.82764C21.8573 9.82764 21.4689 9.84047 21.2822 9.84047V9.74249H21.2834Z" fill="black"/>
<path d="M23.0333 9.8546C22.8234 9.8546 22.4478 9.84177 22.1527 9.84177C21.8576 9.84177 21.4692 9.8546 21.2826 9.8546H21.2686V9.8406V9.74262V9.72863H21.2826H21.328C21.4458 9.72629 21.5543 9.7158 21.5555 9.556V7.84138C21.5543 7.68158 21.4458 7.67108 21.328 7.66875H21.2686V7.65592V7.54395H21.2826C21.482 7.54395 21.8226 7.55678 22.0967 7.55678C22.3708 7.55678 22.7114 7.54395 22.9342 7.54395H22.9493V7.55794C22.947 7.60693 22.9458 7.66525 22.9458 7.72707C22.9458 7.83905 22.9493 7.96269 22.9563 8.056V8.06766L22.9458 8.07116L22.8304 8.10149V8.08399C22.8105 7.87171 22.7826 7.71774 22.4455 7.71424H22.0046V8.54239H22.379C22.5679 8.54122 22.6006 8.44441 22.6239 8.26828L22.6251 8.25545H22.6368H22.7499V8.26945C22.7429 8.39659 22.7394 8.52489 22.7394 8.65203C22.7394 8.77567 22.7429 8.90048 22.7499 9.02528V9.03695L22.7382 9.03928L22.6239 9.06144L22.6228 9.04628C22.6006 8.84682 22.5994 8.73718 22.3813 8.73485L22.0022 8.73368V9.48251C22.0022 9.6808 22.1737 9.6808 22.3871 9.6808C22.7814 9.67847 22.9388 9.65981 23.038 9.29239L23.0415 9.27956L23.0555 9.28189L23.1605 9.30872L23.1581 9.32272C23.1161 9.49535 23.0765 9.66914 23.0473 9.84177L23.045 9.85343H23.0333V9.8546ZM23.0217 9.8266C23.0497 9.66214 23.087 9.49651 23.1278 9.33205L23.0637 9.31572C22.9657 9.68197 22.7756 9.71463 22.3895 9.71113C22.183 9.71113 21.9766 9.71113 21.9766 9.48485V8.70919H22.3836C22.6123 8.70685 22.6344 8.84449 22.6507 9.03111L22.7219 9.01595C22.7161 8.89581 22.7126 8.77451 22.7126 8.65437C22.7126 8.53189 22.7161 8.40942 22.7219 8.28461H22.6507C22.6333 8.45608 22.5796 8.57505 22.3801 8.57272H21.9766V7.68741H22.4455C22.7861 7.68508 22.8432 7.86121 22.8572 8.0665L22.9272 8.04783C22.9214 7.95569 22.919 7.83788 22.919 7.72824C22.919 7.67108 22.9202 7.6186 22.9214 7.57311C22.6997 7.57427 22.3673 7.58594 22.099 7.58594C21.8308 7.58594 21.4995 7.57427 21.2989 7.57311V7.64309H21.3304C21.447 7.64309 21.5858 7.66292 21.587 7.84371V9.55833C21.5858 9.73912 21.447 9.75779 21.3304 9.76012H21.2989V9.82894C21.489 9.82777 21.8681 9.81611 22.155 9.81611C22.442 9.81377 22.8105 9.82544 23.0217 9.8266Z" fill="black"/>
<path d="M23.587 7.90423C23.587 7.66512 23.4564 7.65579 23.3549 7.65579H23.2954V7.55664C23.4004 7.55664 23.6033 7.56947 23.8028 7.56947C23.9988 7.56947 24.1562 7.55664 24.33 7.55664C24.7418 7.55664 25.108 7.66862 25.108 8.13285C25.108 8.42678 24.9121 8.60641 24.6543 8.70905L25.2141 9.54537C25.3051 9.68417 25.3704 9.72266 25.5314 9.74132V9.8393C25.4241 9.8393 25.3191 9.82647 25.2107 9.82647C25.108 9.82647 25.0042 9.8393 24.9027 9.8393C24.6508 9.50921 24.435 9.15579 24.2227 8.77904H24.0069V9.47888C24.0069 9.73199 24.1236 9.74016 24.274 9.74016H24.3335V9.83813C24.1457 9.83813 23.9568 9.8253 23.7701 9.8253C23.6138 9.8253 23.4599 9.83813 23.2954 9.83813V9.74016H23.3549C23.475 9.74016 23.587 9.68533 23.587 9.56403V7.90423ZM24.0058 8.6624H24.1655C24.4933 8.6624 24.6694 8.53876 24.6694 8.15267C24.6694 7.86224 24.4828 7.67445 24.1912 7.67445C24.0921 7.67445 24.0501 7.68495 24.0058 7.68728V8.6624Z" fill="black"/>
<path d="M25.529 9.85441C25.4194 9.85441 25.3155 9.84158 25.2071 9.84158C25.1079 9.84158 25.0029 9.85441 24.8886 9.84974C24.6379 9.51965 24.4232 9.16856 24.2121 8.79414H24.0185V9.47999C24.022 9.7261 24.1211 9.72377 24.2716 9.72844H24.3451V9.74127V9.85324H24.3299C24.1421 9.85324 23.952 9.84041 23.7666 9.84041C23.6103 9.84041 23.4575 9.85324 23.2918 9.85324H23.279V9.83925V9.72844H23.2918H23.3513C23.4691 9.72727 23.5683 9.67595 23.5683 9.56514V7.90418C23.5659 7.67206 23.4516 7.67323 23.3513 7.66973H23.2778V7.6569V7.54492H23.2907C23.398 7.54492 23.5986 7.55775 23.7992 7.55775C23.994 7.55775 24.1515 7.54492 24.3264 7.54492C24.7382 7.54492 25.1184 7.65923 25.1196 8.13396C25.1196 8.42906 24.9236 8.61335 24.6717 8.71716L25.2211 9.54065C25.312 9.67711 25.3692 9.71094 25.529 9.73077L25.5407 9.73194V9.7436V9.85558H25.529V9.85441ZM24.0045 8.76615H24.2285L24.232 8.77315C24.4442 9.1499 24.66 9.50215 24.9015 9.82641C25.0018 9.82641 25.1068 9.81358 25.2082 9.81358C25.3132 9.81358 25.4135 9.82525 25.5162 9.82641V9.7541C25.3622 9.73544 25.2911 9.68995 25.2012 9.55464L24.6309 8.70316L24.6472 8.69617C24.9026 8.59586 25.0928 8.42089 25.0928 8.13279C25.0928 7.67906 24.7393 7.57292 24.3288 7.57175C24.1561 7.57175 23.9975 7.58458 23.8015 7.58458C23.6079 7.58458 23.4155 7.57292 23.3082 7.57175V7.64173H23.3536C23.4551 7.64173 23.5998 7.65806 23.5998 7.90418V9.56631C23.5998 9.69811 23.4773 9.7576 23.3536 9.7576H23.3082V9.82641C23.4656 9.82641 23.6149 9.81358 23.7677 9.81358C23.9508 9.81358 24.1351 9.82525 24.3171 9.82641V9.7576H24.2728C24.1235 9.7576 23.9905 9.73893 23.9905 9.48116V8.76732H24.0045V8.76615ZM24.0045 8.67634H23.9905V7.67439L24.0022 7.67323C24.0477 7.66973 24.0908 7.66156 24.19 7.66156C24.4874 7.66156 24.6822 7.85519 24.6822 8.15379C24.681 8.54453 24.4932 8.6775 24.1643 8.6775H24.0045V8.67634ZM24.1655 8.64834C24.4886 8.64484 24.653 8.53287 24.6554 8.15262C24.6542 7.86685 24.4757 7.68956 24.1911 7.68839C24.1025 7.68839 24.0617 7.69655 24.0197 7.70122V8.64834H24.1655Z" fill="black"/>
<path d="M27.7513 9.19661L27.7571 9.18961V7.96255C27.7571 7.69428 27.5705 7.65579 27.4737 7.65579H27.4014V7.55664C27.5553 7.55664 27.7046 7.56947 27.8598 7.56947C27.9939 7.56947 28.128 7.55664 28.2622 7.55664V7.65579H28.2132C28.0755 7.65579 27.9216 7.68145 27.9216 8.07103V9.56053C27.9216 9.67484 27.9239 9.78914 27.9402 9.89062H27.8166L26.1311 8.01271V9.35991C26.1311 9.64568 26.1871 9.74249 26.4391 9.74249H26.4951V9.84163C26.3539 9.84163 26.2128 9.8288 26.0728 9.8288C25.9259 9.8288 25.7754 9.84163 25.6284 9.84163V9.74249H25.6739C25.9002 9.74249 25.969 9.58969 25.969 9.32725V7.94972C25.969 7.76659 25.8185 7.65579 25.6716 7.65579H25.6296V7.55664C25.7532 7.55664 25.8815 7.56947 26.0052 7.56947C26.1031 7.56947 26.1976 7.55664 26.2956 7.55664L27.7513 9.19661Z" fill="black"/>
<path d="M27.94 9.90397L27.8058 9.8993L26.1449 8.04821V9.35925C26.1484 9.64502 26.1915 9.72434 26.4388 9.72901H26.5076V9.74184V9.85381H26.4936C26.3525 9.85381 26.2113 9.84098 26.0714 9.84098C25.9256 9.84098 25.7728 9.85381 25.627 9.85381H25.6118V9.83981V9.72784H25.627H25.6713C25.8871 9.72667 25.9501 9.5867 25.9524 9.32543V7.94907C25.9512 7.77411 25.8101 7.66913 25.669 7.66913H25.6118V7.6563V7.54316H25.627C25.7518 7.54316 25.8801 7.55599 26.0026 7.55599C26.0994 7.55599 26.1939 7.54316 26.3035 7.54666L27.7417 9.16563V7.9619C27.7417 7.70179 27.5667 7.66913 27.4722 7.66796H27.3859V7.65513V7.54199H27.3999C27.555 7.54199 27.7055 7.55482 27.8583 7.55482C27.9913 7.55482 28.1254 7.54199 28.2607 7.54199H28.2747V7.55716V7.66913H28.2607H28.2117C28.0764 7.67263 27.9376 7.68546 27.9341 8.07037V9.55988C27.9341 9.67302 27.9365 9.78616 27.954 9.88764L27.9551 9.90397H27.94ZM27.8163 9.87481H27.9236C27.9096 9.77683 27.9073 9.66719 27.9073 9.55871V8.06921C27.9073 7.67613 28.0729 7.64114 28.2129 7.63997H28.2467V7.56999C28.1184 7.57115 27.989 7.58282 27.8583 7.58282C27.7078 7.58282 27.562 7.57115 27.4139 7.56999V7.63997H27.4722C27.5725 7.64114 27.7708 7.68429 27.7708 7.9619L27.7662 9.19829L27.7603 9.20412L27.7498 9.21579L26.2942 7.56999C26.1974 7.56999 26.1017 7.58282 26.0037 7.58282C25.8824 7.58282 25.76 7.57115 25.641 7.56999V7.63997H25.669C25.8229 7.64114 25.9804 7.75661 25.9804 7.9479V9.32543C25.9804 9.58787 25.9058 9.75467 25.6713 9.75583H25.6398V9.82465C25.7809 9.82349 25.9267 9.81182 26.0714 9.81182C26.2078 9.81182 26.3443 9.82349 26.4796 9.82465V9.75583H26.4388C26.181 9.75583 26.1169 9.64386 26.1157 9.35809V7.97473L27.8163 9.87481ZM27.751 9.19596L27.7615 9.18663L27.751 9.19596ZM27.7428 9.18896L27.7405 9.18546L27.7428 9.18896Z" fill="black"/>
<path d="M28.7881 9.37216C28.7543 9.48297 28.7146 9.56929 28.7146 9.62761C28.7146 9.72559 28.8534 9.74192 28.9607 9.74192H28.9969V9.83989C28.8651 9.8329 28.7321 9.82706 28.6003 9.82706C28.4825 9.82706 28.3647 9.8329 28.248 9.83989V9.74192H28.2667C28.3938 9.74192 28.5023 9.66727 28.5501 9.52963L29.0739 8.02846C29.1159 7.90716 29.1765 7.74386 29.1952 7.62139C29.3001 7.58523 29.4308 7.52108 29.4938 7.48142C29.5043 7.47792 29.5089 7.47559 29.5194 7.47559C29.5288 7.47559 29.5358 7.47559 29.5428 7.48492C29.5521 7.51058 29.5626 7.54091 29.5731 7.56657L30.175 9.27769C30.2146 9.39199 30.2531 9.5133 30.2963 9.61128C30.3359 9.70226 30.4047 9.74075 30.5132 9.74075H30.5319V9.83873C30.3849 9.83173 30.2379 9.8259 30.0805 9.8259C29.9207 9.8259 29.7562 9.83173 29.5906 9.83873V9.74075H29.6267C29.7014 9.74075 29.8297 9.72909 29.8297 9.64627C29.8297 9.60311 29.8005 9.51563 29.7632 9.41066L29.6361 9.03157H28.8931L28.7881 9.37216ZM29.2652 7.92232H29.2582L28.9537 8.84845H29.5649L29.2652 7.92232Z" fill="black"/>
<path d="M30.531 9.8546C30.3852 9.84876 30.2371 9.84177 30.0808 9.84177C29.921 9.84177 29.7577 9.84876 29.5909 9.8546L29.5757 9.85576V9.8406V9.72746H29.5909H29.6271C29.7017 9.72746 29.8149 9.71113 29.8149 9.64814C29.816 9.61082 29.7869 9.521 29.7507 9.41719L29.6259 9.04744H28.9039L28.8012 9.37753C28.7674 9.48951 28.7289 9.57582 28.7289 9.62831C28.7301 9.70763 28.8526 9.72746 28.961 9.72746H29.0112V9.74262V9.85576L28.996 9.8546C28.8654 9.84876 28.7313 9.84177 28.6006 9.84177C28.4828 9.84177 28.365 9.84876 28.2484 9.8546L28.2344 9.85576V9.8406V9.72746H28.2484H28.267C28.3883 9.72746 28.4898 9.65747 28.5376 9.5245L29.0614 8.02334C29.1045 7.90203 29.1628 7.73873 29.192 7.60926C29.2946 7.5731 29.4253 7.50778 29.4894 7.46813C29.4988 7.46463 29.5069 7.45996 29.5209 7.45996C29.5291 7.45996 29.5466 7.46229 29.5571 7.47979C29.5676 7.50662 29.5769 7.53578 29.5874 7.56144L30.1904 9.27256C30.2289 9.38687 30.2686 9.50817 30.3106 9.60382C30.3479 9.6913 30.4086 9.72629 30.5135 9.72629H30.5474V9.74145V9.8546H30.531ZM29.6037 9.82544C29.7647 9.82077 29.9245 9.81377 30.0808 9.81377C30.2336 9.81377 30.3747 9.82077 30.517 9.82544V9.75778H30.5124C30.4004 9.75895 30.3234 9.71346 30.2826 9.61781C30.2406 9.51867 30.1998 9.39736 30.1613 9.28306L29.5594 7.57194C29.5489 7.54511 29.5396 7.51595 29.5314 7.49262C29.5279 7.48912 29.5291 7.48912 29.5268 7.48912H29.5209C29.5139 7.48912 29.5104 7.49145 29.5023 7.49379C29.4393 7.53461 29.3075 7.59876 29.2107 7.62442C29.1908 7.74923 29.1313 7.91136 29.0894 8.03267L28.5668 9.535C28.5166 9.6773 28.4023 9.75778 28.2682 9.75778H28.2635V9.82544C28.3755 9.82077 28.4887 9.81377 28.603 9.81377C28.7289 9.81377 28.8584 9.82077 28.9832 9.82544V9.75778H28.9622C28.8549 9.75662 28.7068 9.74495 28.7033 9.62831C28.7033 9.56299 28.7429 9.47901 28.7756 9.36937L28.7896 9.37287L28.7756 9.3682L28.8829 9.01828H29.6446L29.7764 9.40669C29.8137 9.51167 29.8428 9.59915 29.8428 9.64697C29.8382 9.74729 29.7005 9.75428 29.6259 9.75662H29.6037V9.82544ZM28.9342 8.86432L29.248 7.91019H29.2596H29.2666V7.92419L29.2631 7.92536L29.2666 7.92419V7.90903H29.276L29.5862 8.86315H28.9342V8.86432ZM28.9739 8.83516H29.5466L29.262 7.95802L28.9739 8.83516ZM29.2515 7.92769L29.2596 7.92536L29.2515 7.92769Z" fill="black"/>
<path d="M30.6754 7.72004C30.4292 7.72004 30.4199 7.77953 30.3709 8.01748H30.2729C30.2858 7.9265 30.3033 7.83435 30.3126 7.7387C30.3254 7.64772 30.3324 7.55558 30.3324 7.4611H30.4106C30.4362 7.55908 30.5191 7.55558 30.6065 7.55558H32.2943C32.383 7.55558 32.4635 7.55325 32.4705 7.4541L32.5498 7.4681C32.5369 7.55558 32.5241 7.64423 32.5136 7.73287C32.5055 7.82152 32.5055 7.91017 32.5055 7.99765L32.4086 8.03381C32.4028 7.9125 32.3865 7.71888 32.1672 7.71888H31.6306V9.45916C31.6306 9.71227 31.745 9.74026 31.9024 9.74026H31.9642V9.83824C31.8371 9.83824 31.6085 9.82541 31.4312 9.82541C31.2352 9.82541 31.0055 9.83824 30.8771 9.83824V9.74026H30.9401C31.1209 9.74026 31.2131 9.72393 31.2131 9.46615V7.72004H30.6754Z" fill="black"/>
<path d="M31.9645 9.8547C31.8373 9.8547 31.6075 9.84187 31.4314 9.84187C31.2355 9.84187 31.0068 9.8547 30.8774 9.8547H30.8634V9.84071V9.72873H30.8774H30.9404C31.1211 9.72407 31.1923 9.72173 31.197 9.46862V7.73417H30.6756V7.72018V7.70618H31.2261V9.46746C31.2261 9.7299 31.1211 9.75556 30.9404 9.75673H30.8925V9.82554C31.022 9.82438 31.2413 9.81271 31.4314 9.81271C31.6017 9.81271 31.821 9.82438 31.9505 9.82554L31.9493 9.75673H31.9015C31.744 9.75556 31.6169 9.71823 31.6169 9.46046V7.70735H32.1674C32.3879 7.70735 32.4159 7.89397 32.4229 8.01528L32.494 7.98962C32.494 7.90447 32.494 7.81932 32.501 7.73301C32.5103 7.64903 32.5232 7.56505 32.5348 7.48223L32.4858 7.4729C32.4695 7.56738 32.3785 7.57321 32.2957 7.57204H30.6079H30.5916C30.5146 7.57204 30.4318 7.56854 30.4015 7.4764H30.3478C30.3466 7.56854 30.3408 7.65486 30.328 7.74351C30.3187 7.83332 30.3035 7.91963 30.2907 8.00478H30.3606C30.4038 7.77733 30.4318 7.70268 30.6767 7.70735V7.72134V7.73534C30.4341 7.74001 30.44 7.78083 30.3863 8.02228L30.384 8.03394H30.3723H30.2568L30.2592 8.01761C30.272 7.92663 30.2895 7.83449 30.2988 7.74001C30.3117 7.64786 30.3187 7.55688 30.3187 7.46357V7.44957H30.3338H30.4225L30.4248 7.46007C30.4481 7.54288 30.5088 7.54288 30.5916 7.54522H30.6079H32.2957C32.3867 7.54288 32.4532 7.54172 32.4578 7.45657V7.44141L32.4742 7.44374L32.5675 7.45774L32.5652 7.47173C32.5512 7.56038 32.5395 7.64786 32.529 7.73534C32.5232 7.82282 32.5232 7.91147 32.5232 8.00012V8.01061L32.5127 8.01411L32.396 8.0561V8.03627C32.3879 7.9138 32.375 7.73534 32.1674 7.73534H31.6449V9.46162C31.6484 9.7089 31.7463 9.7264 31.9015 9.72873H31.9785V9.74273V9.8547H31.9645Z" fill="black"/>
<path d="M32.6699 9.74249H32.7154C32.8344 9.74249 32.958 9.72733 32.958 9.55586V7.84241C32.958 7.67212 32.8344 7.65579 32.7154 7.65579H32.6699V7.55664C32.7971 7.55664 32.993 7.57064 33.154 7.57064C33.3173 7.57064 33.5144 7.55664 33.6684 7.55664V7.65579H33.6229C33.5039 7.65579 33.3791 7.67095 33.3791 7.84241V9.55586C33.3791 9.72616 33.5039 9.74249 33.6229 9.74249H33.6684V9.84163C33.5109 9.84163 33.3149 9.8288 33.1505 9.8288C32.9895 9.8288 32.7971 9.84163 32.6699 9.84163V9.74249Z" fill="black"/>
<path d="M33.6682 9.8546C33.5096 9.8546 33.3136 9.84177 33.1503 9.84177C32.9905 9.84177 32.7969 9.8546 32.6698 9.8546H32.6558V9.8406V9.74262V9.72863H32.6698H32.7152C32.8342 9.72629 32.9415 9.7158 32.9427 9.556V7.84138C32.9427 7.68158 32.8342 7.67108 32.7152 7.66875H32.6558V7.65592V7.54395H32.6698C32.7969 7.54395 32.994 7.55678 33.1538 7.55678C33.3171 7.55678 33.5131 7.54395 33.6682 7.54395H33.681V7.55678V7.66875H33.6682H33.6227C33.5026 7.67108 33.3953 7.68275 33.3941 7.84138V9.556C33.3953 9.7158 33.5026 9.72629 33.6227 9.72863H33.6822V9.74146V9.85343H33.6682V9.8546ZM33.653 9.8266V9.75779H33.6227C33.5049 9.75779 33.3661 9.73679 33.3661 9.556V7.84138C33.3661 7.66059 33.5049 7.64076 33.6227 7.64076H33.653V7.57077C33.5026 7.57194 33.3136 7.5836 33.1538 7.5836C32.9987 7.5836 32.8109 7.57194 32.6838 7.57077V7.64076H32.7152C32.8319 7.64076 32.9719 7.66059 32.9719 7.84138V9.556C32.9719 9.73679 32.8319 9.75779 32.7152 9.75779H32.6838V9.8266C32.8097 9.82427 32.9952 9.81377 33.1503 9.81377C33.3101 9.81377 33.4991 9.82544 33.653 9.8266Z" fill="black"/>
<path d="M34.9738 7.50781C35.6713 7.50781 36.2266 7.93938 36.2266 8.6369C36.2266 9.38923 35.6865 9.88962 34.9902 9.88962C34.2961 9.88962 33.7666 9.41955 33.7666 8.71504C33.7678 8.03503 34.2938 7.50781 34.9738 7.50781ZM35.0228 9.74615C35.6585 9.74615 35.7682 9.18627 35.7682 8.70921C35.7682 8.23099 35.5104 7.65245 34.968 7.65245C34.3953 7.65245 34.2262 8.16217 34.2262 8.60074C34.225 9.18627 34.4933 9.74615 35.0228 9.74615Z" fill="black"/>
<path d="M33.7524 8.71458C33.7548 8.0264 34.2867 7.49452 34.9737 7.49219V7.50735V7.52135C34.3007 7.52135 33.7793 8.04156 33.7793 8.71458C33.7804 9.40976 34.303 9.87399 34.99 9.87516C35.6793 9.87516 36.2112 9.38177 36.2136 8.63643C36.2136 7.94825 35.6653 7.52251 34.9737 7.52251V7.50852V7.49335C35.6758 7.49452 36.2392 7.93076 36.2404 8.63643C36.2404 9.39693 35.6945 9.90315 34.99 9.90432C34.2902 9.90199 33.7536 9.42609 33.7524 8.71458ZM34.2097 8.60027C34.2108 8.16054 34.3835 7.63799 34.9667 7.63799C35.523 7.63915 35.782 8.22936 35.782 8.70992C35.782 9.18698 35.6688 9.75968 35.0215 9.75968V9.74569V9.73169C35.6444 9.73169 35.7517 9.18581 35.754 8.70875C35.754 8.23402 35.4986 7.66598 34.9667 7.66598C34.4056 7.66715 34.2388 8.1652 34.2388 8.60027C34.24 9.18348 34.5048 9.73052 35.0227 9.73169V9.74569V9.75968C34.4803 9.75852 34.2108 9.18931 34.2097 8.60027Z" fill="black"/>
<path d="M38.4321 9.19661L38.4391 9.18961V7.96255C38.4391 7.69428 38.2525 7.65579 38.1534 7.65579H38.0834V7.55664C38.2362 7.55664 38.3878 7.56947 38.5406 7.56947C38.6759 7.56947 38.81 7.55664 38.943 7.55664V7.65579H38.894C38.7564 7.65579 38.6024 7.68145 38.6024 8.07103V9.56053C38.6024 9.67484 38.6059 9.78914 38.6223 9.89062H38.4975L36.8132 8.01271V9.35991C36.8132 9.64568 36.868 9.74249 37.1211 9.74249H37.1759V9.84163C37.0348 9.84163 36.8948 9.8288 36.7537 9.8288C36.6067 9.8288 36.4551 9.84163 36.3081 9.84163V9.74249H36.3548C36.581 9.74249 36.6487 9.58969 36.6487 9.32725V7.94972C36.6487 7.76659 36.4994 7.65579 36.3513 7.65579H36.3093V7.55664C36.4341 7.55664 36.5612 7.56947 36.686 7.56947C36.784 7.56947 36.8785 7.55664 36.9765 7.55664L38.4321 9.19661Z" fill="black"/>
<path d="M38.6212 9.90397L38.4859 9.8993L36.8261 8.04821V9.35925C36.8296 9.64502 36.8739 9.72434 37.1189 9.72784H37.19V9.743V9.85498H37.176C37.0349 9.85498 36.8938 9.84215 36.7538 9.84215C36.6068 9.84215 36.4564 9.85498 36.3082 9.85498H36.2954V9.84098V9.72784H36.3082H36.3549C36.5707 9.72667 36.6325 9.58787 36.6348 9.32776V7.94907C36.6348 7.77411 36.4925 7.66913 36.3514 7.66913H36.2954V7.6563V7.54316H36.3082C36.4342 7.54316 36.5614 7.55599 36.685 7.55599C36.7818 7.55599 36.8763 7.54316 36.9871 7.54782L38.4241 9.16563V7.9619C38.4229 7.70179 38.2503 7.6703 38.1535 7.66796H38.0684V7.65513V7.54199H38.0823C38.2363 7.54199 38.3879 7.55482 38.5396 7.55482C38.6749 7.55482 38.8067 7.54199 38.9432 7.54199H38.9572V7.55482V7.66796H38.9432H38.8942C38.76 7.67146 38.6201 7.68429 38.6177 8.06921V9.55871C38.6177 9.67185 38.6201 9.78616 38.6352 9.88647L38.6376 9.9028H38.6212V9.90397ZM38.4964 9.87481H38.6049C38.5909 9.77683 38.5874 9.66719 38.5874 9.55871V8.06921C38.5874 7.67613 38.753 7.64114 38.893 7.63997H38.928V7.56999C38.7985 7.57115 38.6691 7.58282 38.5384 7.58282C38.3903 7.58282 38.2445 7.57115 38.0952 7.56999V7.63997H38.1523C38.255 7.64114 38.4521 7.68546 38.4521 7.9619L38.4486 9.19829L38.4428 9.20412L38.4323 9.21579L36.9754 7.56999C36.8786 7.56999 36.783 7.58282 36.685 7.58282C36.5637 7.58282 36.4412 7.57115 36.3222 7.56999V7.63997H36.3502C36.5042 7.64114 36.6628 7.75661 36.6628 7.9479V9.32543C36.6628 9.58787 36.5893 9.75467 36.3549 9.75583H36.3234V9.82465C36.4657 9.82349 36.6103 9.81182 36.755 9.81182C36.8914 9.81182 37.0279 9.82349 37.1632 9.82465V9.75583H37.1212C36.8646 9.75583 36.8005 9.64386 36.8005 9.35809V7.97473L38.4964 9.87481ZM38.4323 9.19596L38.4428 9.18663L38.4323 9.19596ZM38.4241 9.18896L38.4218 9.18546L38.4241 9.18896Z" fill="black"/>
<path d="M39.4676 9.37216C39.4361 9.48297 39.3964 9.56929 39.3964 9.62761C39.3964 9.72559 39.5352 9.74192 39.6414 9.74192H39.6775V9.83989C39.5469 9.8329 39.4128 9.82706 39.281 9.82706C39.162 9.82706 39.0454 9.8329 38.9287 9.83989V9.74192H38.9462C39.0745 9.74192 39.183 9.66727 39.232 9.52963L39.7557 8.02846C39.7977 7.90716 39.8572 7.74386 39.8758 7.62139C39.9808 7.58523 40.1114 7.52108 40.1733 7.48142C40.1838 7.47792 40.1896 7.47559 40.2001 7.47559C40.2094 7.47559 40.2153 7.47559 40.2223 7.48492C40.2328 7.51058 40.2421 7.54091 40.2526 7.56657L40.8545 9.27769C40.8929 9.39199 40.9338 9.5133 40.9758 9.61128C41.0142 9.70226 41.0842 9.74075 41.1915 9.74075H41.2114V9.83873C41.0644 9.83173 40.9163 9.8259 40.76 9.8259C40.6002 9.8259 40.4357 9.83173 40.2689 9.83873V9.74075H40.3051C40.3797 9.74075 40.508 9.72909 40.508 9.64627C40.508 9.60311 40.4777 9.51563 40.4415 9.41066L40.3144 9.03157H39.5726L39.4676 9.37216ZM39.9458 7.92232H39.9388L39.6344 8.84845H40.2479L39.9458 7.92232Z" fill="black"/>
<path d="M41.2118 9.85466C41.0648 9.84882 40.9167 9.84183 40.7616 9.84183C40.6018 9.84183 40.4373 9.84882 40.2705 9.85466L40.2565 9.85582V9.84066V9.72868H40.2705H40.3067C40.3825 9.72868 40.4956 9.71119 40.4968 9.6482C40.4968 9.61088 40.4676 9.52106 40.4303 9.41725L40.3067 9.0475H39.5847L39.4844 9.37759C39.4517 9.48957 39.412 9.57588 39.4132 9.62837C39.4132 9.70885 39.5357 9.72985 39.6442 9.72985H39.6943V9.74268V9.85582L39.6791 9.85466C39.5485 9.84882 39.4144 9.84183 39.2849 9.84183C39.1671 9.84183 39.0493 9.84882 38.9315 9.85466L38.9175 9.85582V9.84066V9.72868H38.9315H38.9501C39.0714 9.72752 39.1741 9.65753 39.2219 9.52456L39.7456 8.0234C39.7876 7.90209 39.8459 7.73879 39.8751 7.60932C39.9777 7.57316 40.1095 7.50784 40.1725 7.46819C40.1807 7.46469 40.1912 7.46119 40.204 7.46119C40.2122 7.46002 40.2297 7.46235 40.2402 7.48102C40.2495 7.50668 40.2588 7.53584 40.2693 7.56266L40.8712 9.27378C40.9097 9.38809 40.9494 9.5094 40.9925 9.60621C41.031 9.69369 41.0893 9.72752 41.1955 9.72868H41.2293V9.74151V9.85466H41.2118ZM40.2845 9.8255C40.4455 9.81966 40.6053 9.81383 40.7616 9.81383C40.9132 9.81383 41.0555 9.82083 41.1978 9.8255V9.75784H41.1931C41.0823 9.75784 41.0042 9.71352 40.9645 9.61787C40.9202 9.51873 40.8817 9.39742 40.8432 9.28312L40.2414 7.572C40.232 7.54517 40.2204 7.51601 40.2134 7.49385C40.211 7.48918 40.211 7.48918 40.2087 7.48918H40.2029C40.1959 7.48918 40.1924 7.49151 40.1842 7.49385C40.1212 7.5335 39.9906 7.59999 39.8926 7.62448C39.8728 7.74929 39.8133 7.91142 39.7713 8.03273L39.2476 9.53506C39.1974 9.67736 39.0843 9.75784 38.949 9.75784H38.9431V9.8255C39.0563 9.82083 39.1694 9.81383 39.2837 9.81383C39.4097 9.81383 39.5392 9.82083 39.6663 9.8255V9.75784H39.643C39.5368 9.75668 39.3875 9.74501 39.384 9.62837C39.3852 9.56422 39.4249 9.48024 39.4575 9.36943L39.4704 9.37293L39.4575 9.36826L39.5648 9.01834H40.3288L40.4595 9.40675C40.4956 9.51173 40.5248 9.59921 40.5248 9.64703C40.5201 9.74735 40.3825 9.75434 40.3078 9.75668H40.2845V9.8255ZM39.615 8.86321L39.9299 7.91025H39.9393H39.9463V7.92425L39.9428 7.92542L39.9463 7.92425V7.90909H39.9567L40.2658 8.86204H39.615V8.86321ZM39.6547 8.83521H40.2274L39.9416 7.95924L39.6547 8.83521ZM39.9334 7.92775L39.9393 7.92542L39.9334 7.92775Z" fill="black"/>
<path d="M42.0375 9.5197C42.0375 9.65034 42.1285 9.69 42.2334 9.70283C42.3676 9.71333 42.5146 9.71333 42.6662 9.69583C42.8027 9.6795 42.9216 9.60135 42.9799 9.51854C43.0324 9.44622 43.0604 9.35524 43.0814 9.28292H43.1759C43.1397 9.46955 43.0931 9.65267 43.0546 9.8393C42.7665 9.8393 42.4784 9.82647 42.1915 9.82647C41.9034 9.82647 41.6153 9.8393 41.3271 9.8393V9.74016H41.3726C41.4916 9.74016 41.6188 9.72499 41.6188 9.52087V7.84241C41.6188 7.67212 41.4916 7.65579 41.3726 7.65579H41.3271V7.55664C41.5009 7.55664 41.6712 7.56947 41.8439 7.56947C42.0107 7.56947 42.1751 7.55664 42.3419 7.55664V7.65579H42.2591C42.1355 7.65579 42.0375 7.65928 42.0375 7.83308V9.5197Z" fill="black"/>
<path d="M43.0532 9.8546C42.7651 9.8546 42.477 9.84177 42.19 9.84177C41.9019 9.84177 41.6138 9.8546 41.3245 9.8546H41.3117V9.8406V9.72863H41.3245H41.37C41.489 9.72629 41.601 9.71696 41.6021 9.52217V7.84138C41.601 7.68275 41.489 7.67108 41.37 7.66875H41.3105V7.65592V7.54395H41.3234C41.4972 7.54395 41.6675 7.55678 41.8413 7.55678C42.0081 7.55678 42.1714 7.54395 42.3393 7.54395H42.3522V7.55678V7.66875H42.3393H42.2565C42.1294 7.67225 42.0501 7.66642 42.0477 7.83205V9.51984C42.0489 9.64115 42.1282 9.67381 42.232 9.68897C42.2892 9.69247 42.3498 9.6948 42.4128 9.6948C42.4921 9.6948 42.5761 9.6913 42.6612 9.68197C42.7942 9.66564 42.9085 9.58982 42.9657 9.51168C43.0158 9.44169 43.045 9.35188 43.0637 9.28073L43.0672 9.26906H43.0788H43.1908L43.1873 9.28656C43.1511 9.47318 43.1057 9.65631 43.066 9.84293L43.0625 9.85343H43.0532V9.8546ZM43.0427 9.8266C43.08 9.64931 43.1231 9.47552 43.1581 9.29822H43.0905C43.0707 9.37054 43.0415 9.45802 42.9902 9.52917C42.9295 9.61432 42.8082 9.69363 42.6659 9.71113C42.5796 9.72046 42.4956 9.72396 42.4151 9.72396C42.3521 9.72396 42.2892 9.72163 42.2308 9.71696C42.1247 9.7053 42.0221 9.65981 42.0232 9.51984V7.83205C42.0232 7.65009 42.1375 7.64076 42.26 7.64076H42.3277V7.57077C42.1667 7.57194 42.0069 7.5836 41.8448 7.5836C41.6745 7.5836 41.5088 7.57194 41.342 7.57077V7.64076H41.3735C41.4902 7.64076 41.6336 7.66059 41.6336 7.84138V9.52334C41.6336 9.73563 41.4913 9.75779 41.3735 9.75779H41.342V9.8266C41.6243 9.82544 41.9077 9.81377 42.1924 9.81377C42.4746 9.81377 42.7581 9.82544 43.0427 9.8266Z" fill="black"/>
<path d="M43.1348 7.46387C43.3319 7.46387 43.4789 7.6155 43.4789 7.80912C43.4789 8.00275 43.3319 8.15205 43.1348 8.15205C42.9377 8.15205 42.7896 8.00158 42.7896 7.80912C42.7907 7.6155 42.9388 7.46387 43.1348 7.46387ZM43.1348 8.08789C43.2888 8.08789 43.4077 7.95726 43.4077 7.80912C43.4077 7.66099 43.2911 7.52802 43.1348 7.52802C42.9797 7.52802 42.8619 7.66099 42.8619 7.80912C42.8619 7.95726 42.9797 8.08789 43.1348 8.08789ZM42.9633 7.99108V7.97359C43.0053 7.96776 43.0135 7.97009 43.0135 7.94209V7.68782C43.0135 7.65166 43.01 7.63883 42.9645 7.64116V7.62366H43.1418C43.2013 7.62366 43.2573 7.65283 43.2573 7.71581C43.2573 7.76713 43.2235 7.80446 43.1756 7.81962L43.2316 7.89894C43.2584 7.93393 43.2888 7.96776 43.3086 7.97942V7.99108H43.2409C43.2095 7.99108 43.1815 7.92227 43.1173 7.83245H43.08V7.94676C43.08 7.97009 43.0881 7.96776 43.1301 7.97359V7.99108H42.9633ZM43.08 7.80912H43.1208C43.1651 7.80912 43.1861 7.7753 43.1861 7.72164C43.1861 7.66682 43.1535 7.64816 43.1185 7.64816H43.0812V7.80912H43.08Z" fill="black"/>
<path d="M6.32434 11.689C3.16104 11.7042 0.557617 9.14155 0.557617 6.02258C0.557617 2.61317 3.16104 0.25586 6.32434 0.25586H7.80684C10.9316 0.254693 13.7847 2.612 13.7847 6.02258C13.7847 9.14039 10.9316 11.689 7.80684 11.689H6.32434ZM6.33717 0.729421C3.44681 0.730588 1.10466 3.07273 1.10466 5.96309C1.10466 8.85345 3.44681 11.1956 6.33717 11.1956C9.22752 11.1956 11.5697 8.85345 11.5708 5.96309C11.5697 3.07273 9.22752 0.730588 6.33717 0.729421ZM5.1486 9.05757V2.86745C3.90521 3.34684 3.0234 4.55057 3.0199 5.96309C3.0234 7.37561 3.90521 8.57934 5.1486 9.05757ZM9.65443 5.96309C9.6521 4.54941 8.76912 3.34451 7.5234 2.86628V9.05874C8.76912 8.58051 9.6521 7.37678 9.65443 5.96309Z" fill="#0D4E96"/>
</g>
<defs>
<clipPath id="clip0_4368_487">
<rect width="43.4253" height="12" fill="white" transform="translate(0.276367)"/>
</clipPath>
</defs>
</svg>