<svg xmlns:xlink="http://www.w3.org/1999/xlink" xmlns="http://www.w3.org/2000/svg" width="52" height="15" viewBox="0 0 52 15" fill="none">
<path d="M11.3451 4.46582H8.09619V10.2511H11.3451V4.46582Z" fill="#FF5F00"/>
<path d="M8.30238 7.35893C8.30187 6.80177 8.42928 6.2518 8.67499 5.75065C8.92069 5.24949 9.27824 4.8103 9.72056 4.46631C9.17281 4.03969 8.51497 3.77437 7.82223 3.7007C7.1295 3.62703 6.42982 3.74796 5.80317 4.04968C5.17652 4.35141 4.64818 4.82175 4.27855 5.40694C3.90891 5.99214 3.71289 6.66857 3.71289 7.35893C3.71289 8.0493 3.90891 8.72573 4.27855 9.31093C4.64818 9.89612 5.17652 10.3665 5.80317 10.6682C6.42982 10.9699 7.1295 11.0908 7.82223 11.0172C8.51497 10.9435 9.17281 10.6782 9.72056 10.2516C9.27824 9.90757 8.92069 9.46837 8.67499 8.96722C8.42929 8.46607 8.30187 7.91609 8.30238 7.35893Z" fill="#EB001B"/>
<path d="M15.7282 7.35894C15.7282 8.04929 15.5322 8.72572 15.1626 9.31092C14.793 9.89611 14.2647 10.3665 13.638 10.6682C13.0114 10.9699 12.3117 11.0908 11.619 11.0172C10.9263 10.9435 10.2684 10.6782 9.7207 10.2516C10.1626 9.90722 10.5199 9.46796 10.7656 8.96688C11.0112 8.46581 11.1389 7.91601 11.1389 7.35894C11.1389 6.80186 11.0112 6.25206 10.7656 5.75099C10.5199 5.24991 10.1626 4.81065 9.7207 4.46631C10.2684 4.03969 10.9263 3.77437 11.619 3.7007C12.3117 3.62703 13.0114 3.74797 13.638 4.04969C14.2647 4.35142 14.793 4.82176 15.1626 5.40696C15.5322 5.99215 15.7282 6.66858 15.7282 7.35894Z" fill="#F79E1B"/>
<path d="M15.3739 9.63792V9.51948H15.4221V9.49535H15.2993V9.51948H15.3475V9.63792H15.3739ZM15.6122 9.63792V9.49512H15.5746L15.5313 9.59334L15.488 9.49512H15.4503V9.63792H15.4769V9.5302L15.5175 9.62307H15.545L15.5856 9.52997V9.63792H15.6122Z" fill="#F79E1B"/>
<path d="M19.51 11.0584H19.3726V9.81698V7.3339V4.85081V3.60938H19.51V6.09235V8.57544V11.0584Z" fill="black"/>
<path d="M23.3156 9.63822H22.9297V5.25041H23.3156V9.63822ZM26.1306 5.25041C26.4691 5.24561 26.8059 5.29753 27.127 5.40396C27.4059 5.49684 27.6623 5.64628 27.8798 5.84275C28.0882 6.03555 28.2513 6.2715 28.3573 6.53381C28.5809 7.12058 28.5809 7.768 28.3573 8.35477C28.2513 8.6171 28.0883 8.85307 27.8798 9.04587C27.6623 9.24237 27.4059 9.39181 27.127 9.48467C26.8059 9.59113 26.4691 9.64304 26.1306 9.63822H24.5143V5.25041H26.1306ZM24.9002 5.61395V9.27468H26.1306C26.4207 9.27977 26.7095 9.23578 26.9846 9.14458C27.2163 9.06685 27.4286 8.94134 27.6077 8.77635C27.7778 8.61539 27.9087 8.41817 27.9905 8.19962C28.1633 7.71063 28.1633 7.17795 27.9905 6.68896C27.9085 6.4701 27.7776 6.27244 27.6077 6.11074C27.4292 5.94502 27.2166 5.81941 26.9846 5.74245C26.7093 5.65236 26.4205 5.60892 26.1306 5.61395L24.9002 5.61395ZM33.01 5.20025C33.1954 5.19975 33.3801 5.22078 33.5605 5.26293C33.7332 5.30313 33.9004 5.36362 34.0586 5.44313C34.2105 5.51942 34.3519 5.61475 34.4793 5.72678C34.6038 5.83642 34.7119 5.96307 34.8003 6.1029L34.4777 6.31599C34.4019 6.20113 34.3109 6.09679 34.2072 6.00574C34.1025 5.91359 33.9867 5.83462 33.8625 5.77065C33.7342 5.70484 33.5982 5.65485 33.4577 5.62179C33.311 5.58706 33.1608 5.56971 33.01 5.57009C32.7585 5.5679 32.5088 5.61364 32.2747 5.70483C32.0534 5.79122 31.8521 5.92132 31.6832 6.08723C31.5128 6.25648 31.3783 6.45791 31.2879 6.67958C31.096 7.17167 31.096 7.71696 31.2879 8.20906C31.3783 8.43073 31.5127 8.63216 31.6832 8.8014C31.8521 8.96731 32.0534 9.09741 32.2747 9.18376C32.5088 9.27501 32.7585 9.32077 33.01 9.31855C33.1602 9.31897 33.3098 9.30215 33.456 9.2684C33.5962 9.23619 33.7317 9.1867 33.8593 9.12108C33.9836 9.05715 34.0994 8.97821 34.2041 8.88604C34.3083 8.79432 34.3993 8.68885 34.4746 8.5726L34.7908 8.8014C34.6987 8.93851 34.5887 9.06287 34.4635 9.17123C34.3365 9.28092 34.1962 9.37462 34.046 9.45019C33.8899 9.52866 33.7247 9.58812 33.5542 9.62725C33.073 9.73579 32.5702 9.69922 32.1102 9.52225C31.8417 9.41715 31.597 9.25998 31.3906 9.05995C31.1852 8.85815 31.0233 8.61719 30.9146 8.35163C30.6848 7.76872 30.6848 7.12147 30.9146 6.53856C31.0231 6.27239 31.185 6.03086 31.3906 5.82863C31.597 5.62862 31.8417 5.47145 32.1102 5.36633C32.3965 5.25394 32.7021 5.19754 33.01 5.20025H33.01ZM35.9864 7.19982C36.043 7.10679 36.1127 7.02235 36.1936 6.9491C36.2708 6.87935 36.3576 6.82078 36.4514 6.77514C36.544 6.7303 36.6417 6.69664 36.7424 6.67488C36.8421 6.65309 36.9439 6.64204 37.046 6.64195C37.2194 6.63996 37.3917 6.66807 37.5553 6.72499C37.7025 6.77634 37.8375 6.85686 37.9523 6.96163C38.0645 7.06624 38.152 7.19413 38.2085 7.33615C38.2704 7.49339 38.301 7.66102 38.2986 7.82979V9.63822H37.9381V7.93952C37.94 7.80321 37.9186 7.66755 37.8748 7.5383C37.8361 7.42497 37.7724 7.32164 37.6882 7.23589C37.6032 7.15165 37.5007 7.08691 37.3877 7.04626C37.2578 7.00042 37.1207 6.97813 36.9828 6.98044C36.8493 6.97941 36.7168 7.00332 36.5922 7.05095C36.4741 7.09592 36.3665 7.16417 36.2759 7.25156C36.1851 7.33991 36.113 7.4454 36.064 7.56181C36.0112 7.68736 35.9848 7.82227 35.9864 7.95829V9.63822H35.6258V5.125H35.9864L35.9864 7.19982ZM40.4432 6.64195C40.633 6.64027 40.821 6.67819 40.995 6.75323C41.1618 6.82525 41.3115 6.93091 41.4347 7.06348C41.5619 7.20241 41.6612 7.36411 41.7273 7.5399C41.8007 7.73383 41.8382 7.93927 41.838 8.14637C41.838 8.17352 41.8375 8.19917 41.8365 8.22313C41.8354 8.24718 41.8338 8.2707 41.8317 8.29369H39.3361C39.3454 8.45202 39.3845 8.60722 39.4515 8.75124C39.512 8.87986 39.5975 8.99541 39.703 9.09128C39.8064 9.18435 39.9273 9.25625 40.0588 9.30287C40.1963 9.35153 40.3414 9.37592 40.4874 9.37493C40.6801 9.37825 40.8712 9.33974 41.0473 9.2621C41.2128 9.1862 41.3637 9.08226 41.4932 8.95495L41.6862 9.19942C41.5984 9.28771 41.5014 9.36651 41.3968 9.43452C41.3025 9.49535 41.2017 9.54578 41.0963 9.58492C40.9956 9.62215 40.8911 9.64842 40.7847 9.66327C40.6789 9.67793 40.5722 9.68526 40.4653 9.68523C40.2596 9.68737 40.0554 9.64956 39.8643 9.57395C39.6862 9.50335 39.5248 9.3972 39.3899 9.2621C39.2547 9.12482 39.1492 8.96166 39.0799 8.78259C39.004 8.58552 38.9665 8.37603 38.9692 8.16513C38.967 7.95568 39.0051 7.74774 39.0815 7.55243C39.1516 7.37283 39.2569 7.20878 39.3914 7.06977C39.5242 6.9343 39.6835 6.82711 39.8596 6.75478C40.0445 6.67867 40.243 6.64029 40.4432 6.64195H40.4432ZM40.4368 6.95848C40.2944 6.95675 40.1531 6.98285 40.0208 7.03528C39.898 7.08485 39.7858 7.15719 39.6904 7.24842C39.5937 7.34172 39.5149 7.45162 39.4579 7.57279C39.3963 7.70333 39.3573 7.84319 39.3425 7.98654H41.4712C41.4606 7.84219 41.4252 7.70069 41.3667 7.5681C41.3135 7.44709 41.2379 7.33706 41.1437 7.24373C41.0507 7.15226 40.9404 7.07995 40.8191 7.03099C40.6977 6.98203 40.5678 6.95739 40.4368 6.95849V6.95848ZM43.9128 6.64195C44.1237 6.63994 44.333 6.6799 44.528 6.75947C44.7128 6.83506 44.8778 6.95137 45.0104 7.09956L44.7763 7.34089C44.6639 7.22843 44.5315 7.13757 44.3857 7.07291C44.2335 7.00761 44.0691 6.97502 43.9033 6.9773C43.7475 6.97602 43.593 7.00642 43.4495 7.06662C43.3122 7.12413 43.188 7.20833 43.0841 7.31424C42.9791 7.42244 42.8968 7.55028 42.8421 7.69031C42.7262 7.99645 42.7262 8.33383 42.8421 8.63996C42.8957 8.77873 42.9772 8.90527 43.0816 9.01194C43.186 9.11861 43.3111 9.20319 43.4495 9.26056C43.593 9.32076 43.7475 9.35116 43.9033 9.34988C44.0716 9.35174 44.2383 9.31752 44.392 9.24958C44.5381 9.18449 44.6714 9.09431 44.7858 8.98319L45.0104 9.22767C44.8765 9.37522 44.7112 9.49138 44.5264 9.56771C44.1321 9.72387 43.6923 9.72442 43.2976 9.56925C43.1168 9.49644 42.9529 9.38789 42.8158 9.25021C42.6788 9.11254 42.5715 8.94863 42.5006 8.76851C42.3508 8.37942 42.3508 7.94934 42.5006 7.56026C42.5712 7.37973 42.6783 7.21543 42.8154 7.07745C42.9524 6.93947 43.1165 6.83073 43.2976 6.75792C43.4928 6.67897 43.702 6.63954 43.9128 6.64195H43.9128ZM46.0952 7.93324H46.5792L47.8317 6.68896H48.2871L46.8702 8.08055L48.3124 9.63822H47.8538L46.5792 8.25606H46.0952V9.63822H45.7346V5.125H46.0952V7.93324Z" fill="black"/>
</svg>