<svg xmlns:xlink="http://www.w3.org/1999/xlink" xmlns="http://www.w3.org/2000/svg" width="20" height="12" viewBox="0 0 20 12" fill="none">
<g clip-path="url(#clip0_4368_530)">
<path d="M12.8052 1.2832H7.55518V10.7176H12.8052V1.2832Z" fill="#FF5F00"/>
<path d="M7.88883 5.99999C7.888 5.09139 8.09389 4.19451 8.49092 3.37725C8.88795 2.55999 9.46572 1.84376 10.1805 1.2828C9.29535 0.587074 8.23234 0.154413 7.11295 0.0342676C5.99356 -0.0858777 4.86295 0.111337 3.85034 0.603379C2.83774 1.09542 1.98399 1.86244 1.3867 2.81675C0.789402 3.77106 0.472656 4.87417 0.472656 5.99999C0.472656 7.12581 0.789402 8.22892 1.3867 9.18323C1.98399 10.1375 2.83774 10.9046 3.85034 11.3966C4.86295 11.8886 5.99356 12.0859 7.11295 11.9657C8.23234 11.8456 9.29535 11.4129 10.1805 10.7172C9.46572 10.1562 8.88796 9.43999 8.49093 8.62273C8.0939 7.80547 7.888 6.90859 7.88883 5.99999Z" fill="#EB001B"/>
<path d="M19.8877 5.99999C19.8877 7.12579 19.571 8.2289 18.9738 9.18321C18.3765 10.1375 17.5228 10.9045 16.5102 11.3966C15.4976 11.8886 14.367 12.0859 13.2476 11.9657C12.1283 11.8456 11.0653 11.4129 10.1802 10.7172C10.8943 10.1556 11.4716 9.43931 11.8686 8.62218C12.2655 7.80504 12.4718 6.90844 12.4718 5.99999C12.4718 5.09153 12.2655 4.19494 11.8686 3.3778C11.4716 2.56067 10.8943 1.84433 10.1802 1.2828C11.0653 0.587072 12.1283 0.15441 13.2476 0.034266C14.367 -0.0858777 15.4976 0.111345 16.5102 0.603392C17.5228 1.09544 18.3765 1.86245 18.9738 2.81677C19.571 3.77108 19.8877 4.87418 19.8877 5.99999Z" fill="#F79E1B"/>
<path d="M19.3153 9.71824V9.52509H19.3932V9.48573H19.1948V9.52509H19.2727V9.71824H19.3153ZM19.7004 9.71824V9.48535H19.6396L19.5696 9.64553L19.4997 9.48535H19.4389V9.71824H19.4818V9.54257L19.5474 9.69402H19.5919L19.6575 9.54219V9.71824H19.7004Z" fill="#F79E1B"/>
</g>
<defs>
<clipPath id="clip0_4368_530">
<rect width="19.415" height="12" fill="white" transform="translate(0.472656)"/>
</clipPath>
</defs>
</svg>