<svg xmlns:xlink="http://www.w3.org/1999/xlink" xmlns="http://www.w3.org/2000/svg" width="26" height="8" viewBox="0 0 26 8" fill="none">
<g clip-path="url(#clip0_4368_528)">
<path d="M10.1074 0.141401L6.86432 7.87898H4.74847L3.15254 1.70404C3.05565 1.3237 2.9714 1.18436 2.67673 1.02413C2.19563 0.763127 1.40116 0.518256 0.702148 0.366275L0.749626 0.141401H4.15551C4.58965 0.141401 4.97992 0.430396 5.07849 0.930331L5.92135 5.40769L8.00443 0.141272H10.1074V0.141401ZM18.3977 5.35273C18.4062 3.31054 15.5738 3.19804 15.5933 2.28577C15.5993 2.00813 15.8637 1.71294 16.4423 1.63759C16.7291 1.60005 17.5193 1.57141 18.4156 1.98387L18.7672 0.343052C18.2856 0.168236 17.6659 0 16.8949 0C14.9164 0 13.5241 1.05173 13.5124 2.55773C13.4996 3.67165 14.5062 4.29325 15.2645 4.6634C16.0447 5.04244 16.3065 5.28603 16.3035 5.62508C16.2979 6.14411 15.6812 6.37324 15.1049 6.38227C14.0989 6.39775 13.5151 6.11005 13.0497 5.89369L12.6869 7.58882C13.1546 7.80338 14.0178 7.99058 14.9128 8C17.0157 8 18.3912 6.96129 18.3977 5.35273ZM23.622 7.87898H25.4733L23.8574 0.141401H22.1487C21.7645 0.141401 21.4404 0.365114 21.2969 0.70907L18.2933 7.87898H20.3951L20.8123 6.72326H23.3804L23.622 7.87898ZM21.3886 5.1374L22.4422 2.23223L23.0486 5.1374H21.3886ZM12.9673 0.141401L11.3121 7.87898H9.31059L10.9664 0.141401H12.9673Z" fill="#1434CB"/>
</g>
<defs>
<clipPath id="clip0_4368_528">
<rect width="24.7711" height="8" fill="white" transform="translate(0.70166)"/>
</clipPath>
</defs>
</svg>